<?xml version="1.0" encoding="utf-8"?>
<!-- Generator: Adobe Illustrator 24.3.0, SVG Export Plug-In . SVG Version: 6.00 Build 0)  -->
<svg version="1.1" id="Calque_1" xmlns="http://www.w3.org/2000/svg" xmlns:xlink="http://www.w3.org/1999/xlink" x="0px" y="0px"
	 viewBox="0 0 32 32" style="enable-background:new 0 0 32 32;" xml:space="preserve">
<style type="text/css">
	.st0{fill:#DDAB00;}
	.st1{fill-rule:evenodd;clip-rule:evenodd;fill:#FFFFFF;}
</style>
<circle id="Ellipse_5" class="st0" cx="16" cy="16" r="16"/>
<path class="st1" d="M20.2,14.9h-7.1v-2.1c0-1.6,1.3-2.8,2.8-2.8c1,0,1.8,0.5,2.3,1.2l1.2-0.7c-0.8-1.2-2.1-2-3.6-2
	c-2.3,0-4.2,2-4.2,4.3v2.1c-1.2,0-2.1,0.9-2.1,2.1v4.2c0,1.2,0.9,2.1,2.1,2.1h8.5c1.2,0,2.1-0.9,2.1-2.1v-4.2
	C22.4,15.9,21.4,14.9,20.2,14.9z M20.9,21.3c0,0.4-0.3,0.7-0.7,0.7h-8.5c-0.4,0-0.7-0.3-0.7-0.7v-4.2c0-0.4,0.3-0.7,0.7-0.7h8.5
	c0.4,0,0.7,0.3,0.7,0.7V21.3z"/>
</svg>
