<?xml version="1.0" encoding="utf-8"?>
<!-- Generator: Adobe Illustrator 24.3.0, SVG Export Plug-In . SVG Version: 6.00 Build 0)  -->
<svg version="1.1" id="Calque_1" xmlns="http://www.w3.org/2000/svg" xmlns:xlink="http://www.w3.org/1999/xlink" x="0px" y="0px"
	 viewBox="0 0 34.9 36.5" style="enable-background:new 0 0 34.9 36.5;" xml:space="preserve">
<g>
	<g id="Groupe_de_masques_2" transform="translate(0 -669)">
		<path id="share" d="M25.6,691.2c-1.5,0-3,0.7-4,1.9l-7.4-4.6c0.3-0.9,0.3-1.8,0-2.7l7.4-4.6c1.8,2.2,5,2.5,7.1,0.8
			c2.2-1.8,2.5-5,0.8-7.1c-1.8-2.2-5-2.5-7.1-0.8c-1.2,1-1.9,2.4-1.9,4c0,0.5,0.1,0.9,0.2,1.3l-7.4,4.6c-1.7-2.2-4.9-2.6-7.1-0.8
			s-2.6,4.9-0.8,7.1s4.9,2.6,7.1,0.8c0.3-0.2,0.6-0.5,0.8-0.8l7.4,4.6c-0.1,0.4-0.2,0.9-0.2,1.3c0,2.8,2.3,5.1,5.1,5.1
			s5.1-2.3,5.1-5.1S28.4,691.2,25.6,691.2L25.6,691.2L25.6,691.2z M25.6,674.9c1.7,0,3,1.4,3,3s-1.4,3-3,3s-3-1.4-3-3l0,0
			C22.6,676.3,24,674.9,25.6,674.9C25.6,674.9,25.6,674.9,25.6,674.9z M9.4,690.1c-1.7,0-3-1.4-3-3s1.4-3,3-3s3,1.4,3,3
			S11.1,690.1,9.4,690.1L9.4,690.1z M25.6,699.3c-1.7,0-3-1.4-3-3s1.4-3,3-3s3,1.4,3,3c0,0,0,0,0,0
			C28.7,697.9,27.3,699.3,25.6,699.3L25.6,699.3z"/>
	</g>
</g>
</svg>
