<svg xmlns="http://www.w3.org/2000/svg" width="52.344" height="47.656" viewBox="0 0 52.344 47.656">
  <g id="Groupe_49" data-name="Groupe 49" transform="translate(-181 -681.35)">
    <circle id="Ellipse_8" data-name="Ellipse 8" cx="15" cy="15" r="15" transform="translate(190 690)" fill="#fff"/>
    <g id="Groupe_19" data-name="Groupe 19" transform="translate(685.55 264.309)">
      <g id="Groupe_3" data-name="Groupe 3" transform="translate(-479.363 429.034)">
        <g id="Groupe_2" data-name="Groupe 2" transform="translate(0 0)">
          <path id="Tracé_11" data-name="Tracé 11" d="M-362.906,484.673l-.507-1.667A3.62,3.62,0,0,0-368,480.744a3.62,3.62,0,0,0-2.263,2.263l-.506,1.667a9.36,9.36,0,0,0-.261,4.338,4.08,4.08,0,0,0,2.1,2.843l-.567,12.677a2.5,2.5,0,0,0,.631,1.942,2.755,2.755,0,0,0,3.892.174q.091-.083.174-.174a2.464,2.464,0,0,0,.631-1.889l-.57-12.731a4.079,4.079,0,0,0,2.1-2.841A9.363,9.363,0,0,0-362.906,484.673Zm-1.293,4.063a2.5,2.5,0,0,1-1.637,1.884.788.788,0,0,0-.51.774l.6,13.314a.913.913,0,0,1-.237.715,1.219,1.219,0,0,1-1.715,0,.947.947,0,0,1-.232-.767l.595-13.262a.788.788,0,0,0-.51-.774,2.5,2.5,0,0,1-1.637-1.884,7.778,7.778,0,0,1,.217-3.6l.506-1.667a2.045,2.045,0,0,1,2.628-1.209,2.046,2.046,0,0,1,1.209,1.209l.506,1.667A7.789,7.789,0,0,1-364.2,488.736Z" transform="translate(371.177 -480.55)"/>
        </g>
      </g>
      <g id="Groupe_5" data-name="Groupe 5" transform="translate(-491.194 429.039)">
        <g id="Groupe_4" data-name="Groupe 4" transform="translate(0 0)">
          <path id="Tracé_12" data-name="Tracé 12" d="M-425.942,480.574a.789.789,0,0,0-.789.789v6.772l-2.135,2.135a.789.789,0,0,0-.231.6l.69,13.8a1.074,1.074,0,0,1-.3.8,1.11,1.11,0,0,1-1.57.007l-.007-.007a1.074,1.074,0,0,1-.3-.8l.695-13.8a.789.789,0,0,0-.23-.6l-2.136-2.135v-6.772a.789.789,0,0,0-.789-.789.789.789,0,0,0-.789.789v7.1a.789.789,0,0,0,.231.558l2.118,2.119-.673,13.454a2.664,2.664,0,0,0,2.531,2.791,2.664,2.664,0,0,0,2.791-2.531,2.587,2.587,0,0,0,0-.259l-.673-13.454,2.118-2.119a.788.788,0,0,0,.231-.558v-7.1A.789.789,0,0,0-425.942,480.574Z" transform="translate(433.829 -480.574)"/>
        </g>
      </g>
      <g id="Groupe_7" data-name="Groupe 7" transform="translate(-488.828 429.039)">
        <g id="Groupe_6" data-name="Groupe 6" transform="translate(0 0)">
          <path id="Tracé_13" data-name="Tracé 13" d="M-420.511,480.574a.789.789,0,0,0-.789.789v6.31a.789.789,0,0,0,.789.789.789.789,0,0,0,.789-.789v-6.31A.789.789,0,0,0-420.511,480.574Z" transform="translate(421.3 -480.574)"/>
        </g>
      </g>
      <g id="Groupe_9" data-name="Groupe 9" transform="translate(-486.462 429.039)">
        <g id="Groupe_8" data-name="Groupe 8" transform="translate(0 0)">
          <path id="Tracé_14" data-name="Tracé 14" d="M-407.982,480.574a.789.789,0,0,0-.789.789v6.31a.789.789,0,0,0,.789.789.789.789,0,0,0,.789-.789v-6.31A.789.789,0,0,0-407.982,480.574Z" transform="translate(408.771 -480.574)"/>
        </g>
      </g>
      <g id="Groupe_11" data-name="Groupe 11" transform="translate(-483.493 454.962)">
        <g id="Groupe_10" data-name="Groupe 10">
          <path id="Tracé_15" data-name="Tracé 15" d="M-387.938,618.557a.789.789,0,0,0-.862-.708l-.03,0h0a14.487,14.487,0,0,1-3.343,0,.789.789,0,0,0-.875.692.789.789,0,0,0,.692.875,15.973,15.973,0,0,0,3.707,0A.788.788,0,0,0-387.938,618.557Z" transform="translate(393.05 -617.845)"/>
        </g>
      </g>
      <g id="Groupe_13" data-name="Groupe 13" transform="translate(-471.152 430.424)">
        <g id="Groupe_12" data-name="Groupe 12" transform="translate(0 0)">
          <path id="Tracé_16" data-name="Tracé 16" d="M-325.422,488.192a.789.789,0,0,0-1.111-.1l0,0a.789.789,0,0,0-.095,1.111,14.2,14.2,0,0,1-.837,19.2.789.789,0,0,0,0,1.116.789.789,0,0,0,1.116,0A15.774,15.774,0,0,0-325.422,488.192Z" transform="translate(327.7 -487.91)"/>
        </g>
      </g>
      <g id="Groupe_16" data-name="Groupe 16" transform="translate(-487.016 425.098)">
        <g id="Groupe_15" data-name="Groupe 15" transform="translate(0)">
          <g id="Groupe_14" data-name="Groupe 14">
            <path id="Tracé_17" data-name="Tracé 17" d="M-407.539,473.131h0Z" transform="translate(408.329 -470.596)"/>
            <path id="Tracé_18" data-name="Tracé 18" d="M-401.909,460.144a15.914,15.914,0,0,0-9.284.57.789.789,0,0,0-.461,1.016.789.789,0,0,0,.737.511.792.792,0,0,0,.276-.051,14.327,14.327,0,0,1,8.36-.513.789.789,0,0,0,.952-.581A.789.789,0,0,0-401.909,460.144Z" transform="translate(411.703 -459.706)"/>
          </g>
        </g>
      </g>
      <g id="Groupe_18" data-name="Groupe 18" transform="translate(-496.716 431.256)">
        <g id="Groupe_17" data-name="Groupe 17" transform="translate(0 0)">
          <path id="Tracé_19" data-name="Tracé 19" d="M-457.351,511.943a14.105,14.105,0,0,1-4.14-10.016,14.093,14.093,0,0,1,2.714-8.351.789.789,0,0,0-.157-1.1.789.789,0,0,0-1.1.157l-.014.019a15.774,15.774,0,0,0,1.583,20.413.79.79,0,0,0,1.117,0A.79.79,0,0,0-457.351,511.943Z" transform="translate(463.069 -492.314)"/>
        </g>
      </g>
      <path id="Tracé_20" data-name="Tracé 20" d="M-460.575,442.818l2.109,3.666a.678.678,0,0,0,1.168.013c.394-.651.744-1.229,1.086-1.812.8-1.358,1.54-2.75,2.4-4.066a1.1,1.1,0,0,1,.62-.348.68.68,0,0,1,.814.356c.124.263.223.513.141.663-1.569,2.853-3.19,5.68-4.9,8.452a1.677,1.677,0,0,1-1.506-.077q-2.518-4.089-4.819-8.31c-.538-.99.179-1.383,1.089-1.405s1.815-.013,2.9-.009a.68.68,0,0,0,.673-.789c-.236-1.46-.4-2.77-.738-4.035a22.046,22.046,0,0,0-24.072-16.1,22.15,22.15,0,0,0-19.179,21.569,22.159,22.159,0,0,0,18.482,22.007,21.7,21.7,0,0,0,12.275-1.538c.249-.108.5-.316.744-.311a6.422,6.422,0,0,1,.688.057.679.679,0,0,1,.5,1.016,1.262,1.262,0,0,1-.5.529,23.192,23.192,0,0,1-18.362.865,23.769,23.769,0,0,1-15.2-26.846,23.828,23.828,0,0,1,23.4-19.321,23.793,23.793,0,0,1,23.423,19.673,9.925,9.925,0,0,1,.24,4.184c-.415,1.435-1.755.791-2.972.907A.677.677,0,0,0-460.575,442.818Z" transform="translate(0 0)"/>
      <circle id="Ellipse_2" data-name="Ellipse 2" cx="1.101" cy="1.101" r="1.101" transform="translate(-466.277 456.481)"/>
    </g>
  </g>
</svg>
